<svg xmlns="http://www.w3.org/2000/svg" viewBox="0 0 100 100">
  <!-- Body -->
  <ellipse cx="50" cy="38" rx="26" ry="22" fill="#6B46C1"/>
  <!-- Eyes -->
  <circle cx="41" cy="32" r="5" fill="white"/>
  <circle cx="59" cy="32" r="5" fill="white"/>
  <circle cx="42" cy="33" r="2.5" fill="#1a1a2e"/>
  <circle cx="60" cy="33" r="2.5" fill="#1a1a2e"/>
  <!-- Tentacles -->
  <path d="M28 52 Q20 60 24 70 Q28 78 22 84" stroke="#6B46C1" stroke-width="5" fill="none" stroke-linecap="round"/>
  <path d="M35 58 Q30 68 33 78 Q36 86 30 92" stroke="#6B46C1" stroke-width="5" fill="none" stroke-linecap="round"/>
  <path d="M44 60 Q43 72 46 82 Q48 90 44 96" stroke="#6B46C1" stroke-width="5" fill="none" stroke-linecap="round"/>
  <path d="M56 60 Q57 72 54 82 Q52 90 56 96" stroke="#6B46C1" stroke-width="5" fill="none" stroke-linecap="round"/>
  <path d="M65 58 Q70 68 67 78 Q64 86 70 92" stroke="#6B46C1" stroke-width="5" fill="none" stroke-linecap="round"/>
  <path d="M72 52 Q80 60 76 70 Q72 78 78 84" stroke="#6B46C1" stroke-width="5" fill="none" stroke-linecap="round"/>
  <!-- Smile -->
  <path d="M43 44 Q50 50 57 44" stroke="white" stroke-width="2.5" fill="none" stroke-linecap="round"/>
</svg>
